<?xml version="1.0" encoding="UTF-8" standalone="no"?>
<!-- Created with Inkscape (http://www.inkscape.org/) -->

<svg
     xmlns:dc="http://purl.org/dc/elements/1.1/"
     xmlns:cc="http://creativecommons.org/ns#"
     xmlns:rdf="http://www.w3.org/1999/02/22-rdf-syntax-ns#"
     xmlns:svg="http://www.w3.org/2000/svg"
     xmlns="http://www.w3.org/2000/svg"
     xmlns:sodipodi="http://sodipodi.sourceforge.net/DTD/sodipodi-0.dtd"
     xmlns:inkscape="http://www.inkscape.org/namespaces/inkscape"
     width="406"
     height="80"
     viewBox="0 0 406 80.000001"
     id="svg2"
     version="1.1"
     inkscape:version="0.91 r13725"
     sodipodi:docname="logo.svg">
    <defs
         id="defs4" />
    <sodipodi:namedview
         id="base"
         pagecolor="#ffffff"
         bordercolor="#666666"
         borderopacity="1.0"
         inkscape:pageopacity="0.0"
         inkscape:pageshadow="2"
         inkscape:zoom="2.8284271"
         inkscape:cx="190.70703"
         inkscape:cy="29.604064"
         inkscape:document-units="px"
         inkscape:current-layer="layer1"
         showgrid="false"
         units="px"
         inkscape:showpageshadow="false"
         inkscape:window-width="2560"
         inkscape:window-height="1412"
         inkscape:window-x="2560"
         inkscape:window-y="0"
         inkscape:window-maximized="1" />
    <metadata
         id="metadata7">
        <rdf:RDF>
            <cc:Work
                 rdf:about="">
                <dc:format>image/svg+xml</dc:format>
                <dc:type
                     rdf:resource="http://purl.org/dc/dcmitype/StillImage" />
                <dc:title></dc:title>
            </cc:Work>
        </rdf:RDF>
    </metadata>
    <g
         inkscape:label="Layer 1"
         inkscape:groupmode="layer"
         id="layer1"
         transform="translate(0,-972.36216)">
        <g
             id="g4236"
             transform="matrix(1.6146026,0,0,1.6146026,-504.26705,433.08833)">
            <path
                 d="m 400.6075,376.87221 4.64,0 0,-6.16 -0.24,-3.44 0.12,0 c 1.56,1.48 3.56,2.32 5.36,2.32 4.52,0 8.72,-3.88 8.72,-10.6 0,-6.08 -2.92,-10 -8.04,-10 -2.24,0 -4.6,1.16 -6.28,2.72 l -0.12,0 -0.36,-2.24 -3.8,0 0,27.4 z m 8.92,-11.08 c -1.2,0 -2.84,-0.48 -4.28,-1.8 l 0,-8.84 c 1.6,-1.64 3.16,-2.36 4.64,-2.36 3.2,0 4.56,2.32 4.56,6.24 0,4.44 -2.12,6.76 -4.92,6.76 z m -33.50438,3.32 4.48,0 0,-13.72 c 0.72,-1.64 1.4,-2.48 2.44,-2.48 1.12,0 1.56,0.88 1.56,2.6 l 0,13.6 3.84,0 0,-13.72 c 0.8,-1.64 1.4,-2.48 2.48,-2.48 1.08,0 1.56,0.88 1.56,2.6 l 0,13.6 4.44,0 0,-13.92 c 0,-3.92 -1.6,-6.2 -4.36,-6.2 -2.28,0 -3.56,1.36 -4.48,3.28 -0.52,-2.16 -1.76,-3.28 -3.56,-3.28 -2.28,0 -3.52,1.28 -4.36,2.96 l -0.12,0 -0.36,-2.48 -3.56,0 0,19.64 z m -11.78437,0.48 c 2.88,0 5.6,-0.96 7.68,-2.32 l -1.56,-2.88 c -1.76,1 -3.44,1.64 -5.52,1.64 -3.64,0 -6.24,-1.76 -6.76,-5.4 l 14.44,0 c 0.08,-0.52 0.2,-1.4 0.2,-2.32 0,-5.44 -3.24,-9.32 -9.08,-9.32 -5.28,0 -10.16,3.88 -10.16,10.28 0,6.52 4.76,10.32 10.76,10.32 z m -0.48,-17.04 c 2.8,0 4.56,1.6 4.88,4.8 l -10.44,0 c 0.6,-3.16 2.84,-4.8 5.56,-4.8 z m -18.22438,17.04 c 2.56,0 4.52,-0.52 6.28,-1.12 l -0.88,-3.36 c -1.28,0.48 -2.64,0.8 -4.28,0.8 -3.36,0 -4.56,-1.48 -4.56,-4.72 l 0,-8.08 8.96,0 0,-3.64 -8.96,0 0,-6.16 -3.8,0 -0.6,6.16 -5.44,0.2 0,3.44 5.24,0 0,8.08 c 0,5.04 2.04,8.4 8.04,8.4 z"
                 style="font-style:normal;font-variant:normal;font-weight:600;font-stretch:normal;font-size:medium;line-height:125%;font-family:'Source Code Pro';-inkscape-font-specification:'Source Code Pro Semi-Bold';letter-spacing:-2.83999991px;word-spacing:0px;fill:#ff5555;fill-opacity:1;stroke:none;stroke-width:1px;stroke-linecap:butt;stroke-linejoin:miter;stroke-opacity:1"
                 id="path4204"
                 inkscape:connector-curvature="0" />
            <path
                 d="m 507.20938,377.35221 c 4.92,0 9.2,-2.08 10.36,-7.92 l 4,-19.96 -3.4,0 -0.88,2.28 -0.16,0 c -1,-1.68 -3,-2.76 -5.68,-2.76 -5.6,0 -10.48,5.4 -10.48,12.4 0,4.56 2.6,7.32 6.76,7.32 2.32,0 4.76,-1.16 6.48,-2.8 l 0.16,0 -0.84,3.52 c -0.88,3.4 -3.44,4.48 -6.36,4.48 -2.08,0 -4.32,-0.76 -5.84,-2.08 l -1.92,3.04 c 1.88,1.44 4.4,2.48 7.8,2.48 z m 1.92,-12.16 c -2.36,0 -3.72,-1.4 -3.72,-4.48 0,-4.64 3.24,-8.2 6.64,-8.2 1.64,0 3.08,0.76 4.2,2.44 l -1.56,7.32 c -1.72,1.88 -3.72,2.92 -5.56,2.92 z m -30.18438,3.92 4.28,0 2.44,-12.32 c 2.24,-2.64 4.64,-4.12 6.76,-4.12 1.64,0 2.56,0.84 2.56,2.48 0,0.72 -0.12,1.48 -0.32,2.4 l -2.32,11.56 4.28,0 2.4,-12.08 c 0.24,-1.04 0.36,-2.04 0.36,-3.08 0,-3.12 -1.68,-4.96 -5.08,-4.96 -3.12,0 -6.04,2.04 -8.2,4.16 l -0.16,0 0.36,-3.68 -3.48,0 -3.88,19.64 z m -13.86438,0.48 c 2.36,0 4.84,-1.28 6.8,-3.32 l 0.16,0 -0.2,2.84 3.52,0 3.92,-19.64 -3.44,0 -0.84,2.28 -0.16,0 c -1,-1.68 -3,-2.76 -5.68,-2.76 -5.76,0 -10.68,5.92 -10.68,13.04 0,4.88 2.6,7.56 6.6,7.56 z m 1.48,-3.52 c -2.2,0 -3.64,-1.44 -3.64,-4.64 0,-4.84 3.12,-8.92 6.92,-8.92 1.48,0 3.12,0.72 4.16,2.4 l -1.64,7.72 c -1.84,2.32 -4,3.44 -5.8,3.44 z m -15.94437,3.52 c 2.08,0 3.88,-0.4 5.8,-1.28 l -0.96,-3.2 c -1.36,0.64 -2.32,0.96 -3.56,0.96 -1.56,0 -2.64,-0.76 -2.64,-2.48 0,-0.64 0.08,-1.16 0.2,-1.64 l 4.52,-21.08 -10.28,0 -0.72,3.36 6.08,0 -3.76,17.32 c -0.24,0.88 -0.32,1.64 -0.32,2.32 0,3.68 2.36,5.72 5.64,5.72 z"
                 style="font-style:italic;font-variant:normal;font-weight:600;font-stretch:normal;font-size:medium;line-height:125%;font-family:'Source Code Pro';-inkscape-font-specification:'Source Code Pro Semi-Bold Italic';letter-spacing:-2.83999991px;word-spacing:0px;fill:#5fd3bc;fill-opacity:1;stroke:none;stroke-width:1px;stroke-linecap:butt;stroke-linejoin:miter;stroke-opacity:1"
                 id="path4214"
                 inkscape:connector-curvature="0" />
            <path
                 d="m 548.85812,376.19221 c 5.36,-4.44 8.72,-10.6 8.72,-18.2 0,-7.6 -3.36,-13.76 -8.72,-18.2 l -2.56,2.12 c 5.08,4.6 7.32,9.56 7.32,16.08 0,6.52 -2.24,11.48 -7.32,16.08 l 2.56,2.12 z m -22.62436,-1 11.48,0 0,-34.4 -11.48,0 0,2.52 7.88,0 0,29.36 -7.88,0 0,2.52 z m -99.28188,0 11.48,0 0,-2.52 -7.88,0 0,-29.36 7.88,0 0,-2.52 -11.48,0 0,34.4 z m -99.72188,1 2.56,-2.12 c -5.08,-4.6 -7.32,-9.56 -7.32,-16.08 0,-6.52 2.24,-11.48 7.32,-16.08 l -2.56,-2.12 c -5.36,4.44 -8.72,10.6 -8.72,18.2 0,7.6 3.36,13.76 8.72,18.2 z"
                 style="font-style:normal;font-variant:normal;font-weight:600;font-stretch:normal;font-size:medium;line-height:125%;font-family:'Source Code Pro';-inkscape-font-specification:'Source Code Pro Semi-Bold';letter-spacing:-2.83999991px;word-spacing:0px;fill:#6f7c91;fill-opacity:1;stroke:none;stroke-width:1px;stroke-linecap:butt;stroke-linejoin:miter;stroke-opacity:1"
                 id="path4218"
                 inkscape:connector-curvature="0" />
        </g>
    </g>
</svg>
